<svg width="168" height="39" viewBox="0 0 168 39" fill="none" xmlns="http://www.w3.org/2000/svg">
<path d="M50.203 20.282C50.2376 19.6158 50.2376 18.9482 50.203 18.282H12.254C12.246 18.448 12.239 18.615 12.235 18.782H4.285L4.281 19.032H0V19.532H4.28L4.286 19.782H12.235C12.239 19.95 12.245 20.116 12.255 20.282H23.15C23.1086 19.9503 23.0879 19.6163 23.088 19.282H39.088C39.088 19.621 39.068 19.955 39.026 20.282H50.203ZM50.124 17.282H38.837C38.7492 16.9417 38.639 16.6077 38.507 16.282H23.672C23.541 16.606 23.43 16.939 23.342 17.282H12.332C12.35 17.115 12.37 16.948 12.392 16.782H4.442L4.476 16.538H0V16.038H4.555L4.601 15.782H12.551C12.581 15.615 12.615 15.448 12.651 15.282H49.807C49.947 15.937 50.054 16.604 50.124 17.282ZM49.564 14.282H37.334C37.0456 13.922 36.7267 13.5874 36.381 13.282H25.797C25.452 13.588 25.132 13.922 24.844 14.282H12.894C12.939 14.115 12.987 13.948 13.037 13.782H5.087L5.175 13.501H0V13H5.342L5.42 12.781H13.37C13.43 12.613 13.494 12.447 13.56 12.281H48.897C49.155 12.931 49.378 13.6 49.564 14.282ZM48.467 11.282H13.99C14.068 11.114 14.148 10.948 14.231 10.782H6.282L6.423 10.506H0V10.006H6.694L6.821 9.782H14.771C14.868 9.614 14.968 9.447 15.07 9.282H47.387C47.785 9.924 48.147 10.592 48.467 11.282ZM12.332 21.282H50.125C50.054 21.96 49.947 22.628 49.807 23.282H38.019C38.204 22.962 38.368 22.628 38.508 22.282H23.67C23.81 22.628 23.973 22.962 24.158 23.282H12.65C12.6144 23.1158 12.5811 22.9491 12.55 22.782H4.601C4.58471 22.6941 4.56905 22.6061 4.554 22.518H0V22.018H4.475C4.46352 21.9394 4.45252 21.8607 4.442 21.782H12.392C12.3698 21.6156 12.3498 21.4489 12.332 21.282ZM12.893 24.282H49.563C49.378 24.965 49.155 25.632 48.897 26.282H34.965C35.4717 26.0007 35.9465 25.6655 36.381 25.282H25.797C26.2315 25.6655 26.7063 26.0007 27.213 26.282H13.56C13.4944 26.1162 13.431 25.9495 13.37 25.782H5.42L5.334 25.541H0V25.041H5.168C5.14072 24.9549 5.11406 24.8685 5.088 24.782H13.037C12.987 24.616 12.939 24.45 12.893 24.282ZM13.99 27.282H48.467C48.1473 27.9697 47.7867 28.6375 47.387 29.282H15.07C14.9674 29.1169 14.8674 28.9502 14.77 28.782H6.821C6.771 28.696 6.722 28.61 6.674 28.523H0V28.023H6.405L6.282 27.783H14.232C14.1489 27.6175 14.0682 27.4508 13.99 27.283V27.282ZM16.92 31.782C17.067 31.952 17.218 32.118 17.372 32.282H45.085C45.6752 31.6531 46.2221 30.9849 46.722 30.282H15.735C15.855 30.451 15.977 30.618 16.103 30.782H8.153L8.351 31.037H0V31.537H8.76C8.829 31.62 8.899 31.701 8.97 31.782H16.92ZM20.237 34.782C20.48 34.955 20.727 35.122 20.977 35.282H41.48C42.4004 34.6909 43.2683 34.0218 44.074 33.282H18.384C18.569 33.452 18.758 33.619 18.95 33.782H11C11.108 33.874 11.217 33.964 11.327 34.052H0V34.552H11.972C12.076 34.63 12.182 34.707 12.288 34.782H20.238H20.237ZM27.254 37.866C28.536 38.139 29.865 38.282 31.228 38.282C34.282 38.282 37.167 37.562 39.723 36.282H22.733C23.089 36.46 23.45 36.627 23.817 36.782H15.867C16.009 36.842 16.152 36.901 16.295 36.958H0V37.458H17.725C19.482 37.994 21.347 38.282 23.279 38.282C24.642 38.282 25.972 38.139 27.254 37.866ZM15.735 8.282H46.722C46.2221 7.57912 45.6752 6.91092 45.085 6.282H17.372C17.218 6.446 17.067 6.612 16.919 6.782H8.97L8.794 6.988H0V7.488H8.382C8.305 7.585 8.229 7.683 8.154 7.782H16.103C15.977 7.947 15.855 8.114 15.735 8.282ZM18.383 5.282H44.073C43.2676 4.54225 42.4001 3.87312 41.48 3.282H20.977C20.727 3.443 20.48 3.61 20.237 3.782H12.288C12.178 3.861 12.068 3.94 11.96 4.021H0V4.521H11.316C11.21 4.607 11.105 4.694 11.001 4.782H18.95C18.758 4.945 18.569 5.112 18.383 5.282ZM22.734 2.282H39.724C37.0869 0.962439 34.1778 0.277554 31.229 0.282004C29.865 0.282004 28.536 0.426004 27.254 0.699004C25.9473 0.421204 24.6149 0.281438 23.279 0.282004C21.145 0.282004 19.094 0.634004 17.179 1.282H0V1.782H23.817C23.4508 1.93723 23.0896 2.10398 22.734 2.282Z" fill="black"/>
<path d="M57.506 14.076H58.836V6.236H57.016V7.832H55.392V5.228H64.548V7.832H62.924V6.236H61.104V14.076H62.434V15H57.506V14.076ZM65.4542 14.076H66.2942V5.942L65.4542 5.76V4.962L68.4222 4.36V8.826H68.5202C68.6508 8.45267 68.8795 8.14 69.2062 7.888C69.5422 7.62667 69.9855 7.496 70.5362 7.496C71.4322 7.496 72.0622 7.72467 72.4262 8.182C72.7995 8.63 72.9862 9.30667 72.9862 10.212V14.076H73.8262V15H70.0882V14.076H70.8582V10.282C70.8582 9.78733 70.7695 9.43733 70.5922 9.232C70.4242 9.01733 70.1348 8.91 69.7242 8.91C69.5655 8.91 69.4068 8.93333 69.2482 8.98C69.0988 9.01733 68.9588 9.08267 68.8282 9.176C68.7068 9.26 68.6088 9.372 68.5342 9.512C68.4595 9.64267 68.4222 9.806 68.4222 10.002V14.076H69.1922V15H65.4542V14.076ZM78.3113 15.168C77.7326 15.168 77.2193 15.0747 76.7713 14.888C76.3326 14.692 75.9593 14.426 75.6513 14.09C75.3526 13.7447 75.124 13.3387 74.9653 12.872C74.8066 12.396 74.7273 11.878 74.7273 11.318C74.7273 10.73 74.8066 10.198 74.9653 9.722C75.1333 9.246 75.3666 8.84467 75.6653 8.518C75.9733 8.19133 76.3373 7.93933 76.7573 7.762C77.1866 7.58467 77.6626 7.496 78.1853 7.496C78.708 7.496 79.1793 7.57533 79.5993 7.734C80.0193 7.89267 80.374 8.12133 80.6633 8.42C80.962 8.70933 81.1906 9.064 81.3493 9.484C81.508 9.904 81.5873 10.3707 81.5873 10.884V11.36H76.9813V11.92C76.9813 12.5453 77.1446 13.0167 77.4713 13.334C77.798 13.6513 78.232 13.81 78.7733 13.81C79.2773 13.81 79.6833 13.698 79.9913 13.474C80.2993 13.2407 80.5186 12.9607 80.6493 12.634L81.4193 13.096C81.3353 13.3293 81.214 13.5673 81.0553 13.81C80.8966 14.0527 80.6913 14.2767 80.4393 14.482C80.1873 14.678 79.884 14.8413 79.5293 14.972C79.1746 15.1027 78.7686 15.168 78.3113 15.168ZM76.9813 10.478H79.3893V10.282C79.3893 9.61 79.282 9.13867 79.0673 8.868C78.8526 8.59733 78.5586 8.462 78.1853 8.462C77.812 8.462 77.518 8.59733 77.3033 8.868C77.0886 9.13867 76.9813 9.61 76.9813 10.282V10.478ZM85.9529 14.076H86.9329V6.152H85.9529V5.228H91.0069C91.5762 5.228 92.0662 5.28867 92.4769 5.41C92.8876 5.522 93.2236 5.68067 93.4849 5.886C93.7556 6.09133 93.9516 6.334 94.0729 6.614C94.2036 6.894 94.2689 7.19733 94.2689 7.524C94.2689 7.86 94.2082 8.15867 94.0869 8.42C93.9749 8.68133 93.8209 8.90533 93.6249 9.092C93.4289 9.26933 93.2002 9.41867 92.9389 9.54C92.6869 9.66133 92.4256 9.75 92.1549 9.806V9.876C92.4349 9.91333 92.7242 9.988 93.0229 10.1C93.3216 10.212 93.5922 10.366 93.8349 10.562C94.0776 10.758 94.2736 11.0007 94.4229 11.29C94.5816 11.57 94.6609 11.9013 94.6609 12.284C94.6609 13.152 94.3809 13.824 93.8209 14.3C93.2609 14.7667 92.4162 15 91.2869 15H85.9529V14.076ZM89.2009 14.006H90.7549C91.2589 14.006 91.6462 13.88 91.9169 13.628C92.1969 13.376 92.3369 13.0213 92.3369 12.564V11.906C92.3369 11.4487 92.1969 11.094 91.9169 10.842C91.6462 10.59 91.2589 10.464 90.7549 10.464H89.2009V14.006ZM89.2009 9.498H90.5029C91.4642 9.498 91.9449 9.05467 91.9449 8.168V7.552C91.9449 6.66533 91.4642 6.222 90.5029 6.222H89.2009V9.498ZM97.9663 15.168C97.173 15.168 96.5943 14.986 96.2303 14.622C95.8757 14.2487 95.6983 13.7307 95.6983 13.068C95.6983 11.6213 96.767 10.898 98.9043 10.898H99.8843V10.1C99.8843 9.53067 99.777 9.10133 99.5623 8.812C99.3477 8.52267 98.9743 8.378 98.4423 8.378C98.2463 8.378 98.0783 8.392 97.9383 8.42C97.7983 8.448 97.677 8.48533 97.5743 8.532V8.602C97.6677 8.64867 97.7563 8.73267 97.8403 8.854C97.9337 8.97533 97.9803 9.13867 97.9803 9.344C97.9803 9.624 97.8917 9.862 97.7143 10.058C97.537 10.2447 97.271 10.338 96.9163 10.338C96.6363 10.338 96.403 10.24 96.2163 10.044C96.0297 9.848 95.9363 9.60067 95.9363 9.302C95.9363 9.078 96.0017 8.85867 96.1323 8.644C96.263 8.42 96.459 8.224 96.7203 8.056C96.9817 7.888 97.3037 7.75267 97.6863 7.65C98.0783 7.54733 98.5263 7.496 99.0303 7.496C100.048 7.496 100.799 7.71533 101.284 8.154C101.77 8.58333 102.012 9.19467 102.012 9.988V14.076H102.852V14.874C102.694 14.9673 102.488 15.0373 102.236 15.084C101.984 15.14 101.723 15.168 101.452 15.168C100.939 15.168 100.575 15.0513 100.36 14.818C100.155 14.5753 100.052 14.2767 100.052 13.922V13.894H99.9683C99.903 14.0527 99.819 14.2067 99.7163 14.356C99.623 14.5053 99.497 14.6407 99.3383 14.762C99.189 14.8833 99.0023 14.9813 98.7783 15.056C98.5543 15.1307 98.2837 15.168 97.9663 15.168ZM98.7643 13.908C99.1097 13.908 99.3803 13.8287 99.5763 13.67C99.7817 13.5113 99.8843 13.236 99.8843 12.844V11.738H99.1283C98.6803 11.738 98.3443 11.8313 98.1203 12.018C97.9057 12.2047 97.7983 12.4707 97.7983 12.816V13.04C97.7983 13.3387 97.887 13.558 98.0643 13.698C98.2417 13.838 98.475 13.908 98.7643 13.908ZM103.612 14.076H104.452V5.942L103.612 5.76V4.962L106.58 4.36V8.826H106.678C106.809 8.45267 107.038 8.14 107.364 7.888C107.7 7.62667 108.144 7.496 108.694 7.496C109.59 7.496 110.22 7.72467 110.584 8.182C110.958 8.63 111.144 9.30667 111.144 10.212V14.076H111.984V15H108.246V14.076H109.016V10.282C109.016 9.78733 108.928 9.43733 108.75 9.232C108.582 9.01733 108.293 8.91 107.882 8.91C107.724 8.91 107.565 8.93333 107.406 8.98C107.257 9.01733 107.117 9.08267 106.986 9.176C106.865 9.26 106.767 9.372 106.692 9.512C106.618 9.64267 106.58 9.806 106.58 10.002V14.076H107.35V15H103.612V14.076ZM114.762 6.698C114.37 6.698 114.062 6.59067 113.838 6.376C113.623 6.16133 113.516 5.872 113.516 5.508V5.438C113.516 5.074 113.623 4.78467 113.838 4.57C114.062 4.35533 114.37 4.248 114.762 4.248C115.154 4.248 115.457 4.35533 115.672 4.57C115.896 4.78467 116.008 5.074 116.008 5.438V5.508C116.008 5.872 115.896 6.16133 115.672 6.376C115.457 6.59067 115.154 6.698 114.762 6.698ZM112.872 14.076H113.712V9.078L112.872 8.896V8.098L115.84 7.496V14.076H116.68V15H112.872V14.076ZM119.773 15.168C118.98 15.168 118.401 14.986 118.037 14.622C117.682 14.2487 117.505 13.7307 117.505 13.068C117.505 11.6213 118.574 10.898 120.711 10.898H121.691V10.1C121.691 9.53067 121.584 9.10133 121.369 8.812C121.154 8.52267 120.781 8.378 120.249 8.378C120.053 8.378 119.885 8.392 119.745 8.42C119.605 8.448 119.484 8.48533 119.381 8.532V8.602C119.474 8.64867 119.563 8.73267 119.647 8.854C119.74 8.97533 119.787 9.13867 119.787 9.344C119.787 9.624 119.698 9.862 119.521 10.058C119.344 10.2447 119.078 10.338 118.723 10.338C118.443 10.338 118.21 10.24 118.023 10.044C117.836 9.848 117.743 9.60067 117.743 9.302C117.743 9.078 117.808 8.85867 117.939 8.644C118.07 8.42 118.266 8.224 118.527 8.056C118.788 7.888 119.11 7.75267 119.493 7.65C119.885 7.54733 120.333 7.496 120.837 7.496C121.854 7.496 122.606 7.71533 123.091 8.154C123.576 8.58333 123.819 9.19467 123.819 9.988V14.076H124.659V14.874C124.5 14.9673 124.295 15.0373 124.043 15.084C123.791 15.14 123.53 15.168 123.259 15.168C122.746 15.168 122.382 15.0513 122.167 14.818C121.962 14.5753 121.859 14.2767 121.859 13.922V13.894H121.775C121.71 14.0527 121.626 14.2067 121.523 14.356C121.43 14.5053 121.304 14.6407 121.145 14.762C120.996 14.8833 120.809 14.9813 120.585 15.056C120.361 15.1307 120.09 15.168 119.773 15.168ZM120.571 13.908C120.916 13.908 121.187 13.8287 121.383 13.67C121.588 13.5113 121.691 13.236 121.691 12.844V11.738H120.935C120.487 11.738 120.151 11.8313 119.927 12.018C119.712 12.2047 119.605 12.4707 119.605 12.816V13.04C119.605 13.3387 119.694 13.558 119.871 13.698C120.048 13.838 120.282 13.908 120.571 13.908ZM125.559 14.076H126.399V9.078L125.559 8.896V8.098L128.485 7.496V8.882H128.555C128.686 8.50867 128.919 8.18667 129.255 7.916C129.591 7.636 130.053 7.496 130.641 7.496C131.537 7.496 132.167 7.72467 132.531 8.182C132.904 8.63 133.091 9.30667 133.091 10.212V14.076H133.931V15H130.193V14.076H130.963V10.282C130.963 9.78733 130.874 9.43733 130.697 9.232C130.529 9.01733 130.24 8.91 129.829 8.91C129.67 8.91 129.512 8.93333 129.353 8.98C129.194 9.01733 129.054 9.08267 128.933 9.176C128.812 9.26 128.714 9.372 128.639 9.512C128.564 9.64267 128.527 9.806 128.527 10.002V14.076H129.297V15H125.559V14.076ZM138.138 14.076H139.118V6.152H138.138V5.228H142.436V6.152H141.386V13.992H144.046V12.116H145.67V15H138.138V14.076ZM150.32 14.16C151.179 14.16 151.608 13.6467 151.608 12.62V10.044C151.608 9.01733 151.179 8.504 150.32 8.504C149.461 8.504 149.032 9.01733 149.032 10.044V12.62C149.032 13.6467 149.461 14.16 150.32 14.16ZM150.32 15.168C149.788 15.168 149.303 15.084 148.864 14.916C148.435 14.7387 148.061 14.4867 147.744 14.16C147.436 13.8333 147.198 13.432 147.03 12.956C146.862 12.48 146.778 11.9387 146.778 11.332C146.778 10.7253 146.862 10.184 147.03 9.708C147.198 9.232 147.436 8.83067 147.744 8.504C148.061 8.17733 148.435 7.93 148.864 7.762C149.303 7.58467 149.788 7.496 150.32 7.496C150.852 7.496 151.333 7.58467 151.762 7.762C152.201 7.93 152.574 8.17733 152.882 8.504C153.199 8.83067 153.442 9.232 153.61 9.708C153.778 10.184 153.862 10.7253 153.862 11.332C153.862 11.9387 153.778 12.48 153.61 12.956C153.442 13.432 153.199 13.8333 152.882 14.16C152.574 14.4867 152.201 14.7387 151.762 14.916C151.333 15.084 150.852 15.168 150.32 15.168ZM154.913 14.076H155.753V8.644H154.913V7.664H155.753V7.09C155.753 6.222 156.023 5.55 156.565 5.074C157.106 4.598 157.867 4.36 158.847 4.36C159.173 4.36 159.453 4.402 159.687 4.486C159.929 4.56067 160.13 4.66333 160.289 4.794C160.447 4.92467 160.564 5.074 160.639 5.242C160.713 5.41 160.751 5.58267 160.751 5.76C160.751 6.05867 160.667 6.30133 160.499 6.488C160.331 6.67467 160.097 6.768 159.799 6.768C159.491 6.768 159.257 6.684 159.099 6.516C158.94 6.348 158.861 6.14267 158.861 5.9C158.861 5.71333 158.898 5.56867 158.973 5.466C159.057 5.36333 159.141 5.29333 159.225 5.256V5.172C159.131 5.15333 159.019 5.144 158.889 5.144C158.534 5.144 158.277 5.26533 158.119 5.508C157.96 5.75067 157.881 6.152 157.881 6.712V7.664H159.281V8.644H157.881V14.076H159.001V15H154.913V14.076ZM162.679 15.14C162.119 15.14 161.704 15.0187 161.433 14.776C161.172 14.524 161.041 14.1553 161.041 13.67V8.644H160.061V7.664H160.439C160.747 7.664 160.971 7.59867 161.111 7.468C161.261 7.328 161.401 7.12267 161.531 6.852L162.119 5.634H163.169V7.664H164.779V8.644H163.169V14.048H164.779V14.874C164.63 14.9393 164.364 15 163.981 15.056C163.599 15.112 163.165 15.14 162.679 15.14ZM54.972 32.678H56.064L58.332 23.55H57.24L57.31 23.228H61.3C61.9813 23.228 62.49 23.382 62.826 23.69C63.162 23.998 63.33 24.446 63.33 25.034C63.33 25.398 63.2693 25.7387 63.148 26.056C63.036 26.364 62.8773 26.644 62.672 26.896C62.4667 27.1387 62.2193 27.344 61.93 27.512C61.65 27.6707 61.3373 27.778 60.992 27.834V27.89C61.5333 27.9647 61.9207 28.1653 62.154 28.492C62.3873 28.8093 62.504 29.2247 62.504 29.738C62.504 30.186 62.4293 30.6107 62.28 31.012C62.14 31.404 61.93 31.7493 61.65 32.048C61.3793 32.3373 61.048 32.5707 60.656 32.748C60.264 32.916 59.8207 33 59.326 33H54.902L54.972 32.678ZM56.582 32.664H59.214C59.858 32.664 60.4087 32.5007 60.866 32.174C61.3327 31.838 61.6407 31.3713 61.79 30.774C61.8367 30.6153 61.8787 30.4333 61.916 30.228C61.9627 30.0227 61.986 29.8313 61.986 29.654C61.986 29.15 61.8553 28.758 61.594 28.478C61.3327 28.1887 60.894 28.044 60.278 28.044H57.73L56.582 32.664ZM57.814 27.708H60.18C60.7587 27.708 61.2673 27.5633 61.706 27.274C62.154 26.9753 62.4573 26.574 62.616 26.07C62.672 25.9113 62.7187 25.734 62.756 25.538C62.7933 25.3327 62.812 25.1413 62.812 24.964C62.812 24.544 62.6907 24.208 62.448 23.956C62.2147 23.6947 61.818 23.564 61.258 23.564H58.85L57.814 27.708ZM66.1173 26.252H64.9133L64.9693 26.014L66.7333 25.776L65.9633 28.8L66.0473 28.814C66.1873 28.4967 66.346 28.156 66.5233 27.792C66.7006 27.428 66.8966 27.092 67.1113 26.784C67.3353 26.476 67.578 26.224 67.8393 26.028C68.11 25.8227 68.404 25.72 68.7213 25.72C68.9733 25.72 69.1646 25.7807 69.2953 25.902C69.4353 26.014 69.5053 26.154 69.5053 26.322C69.5053 26.4807 69.4586 26.6113 69.3653 26.714C69.2813 26.8073 69.1646 26.854 69.0153 26.854C68.8846 26.854 68.782 26.812 68.7073 26.728C68.6326 26.644 68.5953 26.5507 68.5953 26.448C68.5953 26.3547 68.6233 26.2707 68.6793 26.196C68.7353 26.112 68.8006 26.0467 68.8753 26L68.8473 25.944H68.6933C68.4973 25.944 68.292 26.0327 68.0773 26.21C67.8626 26.378 67.6246 26.6253 67.3633 26.952C67.2233 27.12 67.06 27.3533 66.8733 27.652C66.696 27.9507 66.514 28.282 66.3273 28.646C66.15 29.0007 65.982 29.3693 65.8233 29.752C65.674 30.1253 65.5573 30.48 65.4733 30.816L64.9273 33H64.4373L66.1173 26.252ZM71.0007 33.168C70.7487 33.168 70.5387 33.1167 70.3707 33.014C70.212 32.9207 70.0814 32.79 69.9787 32.622C69.8854 32.454 69.8154 32.258 69.7687 32.034C69.7314 31.8007 69.7127 31.558 69.7127 31.306C69.7127 30.69 69.7874 30.0553 69.9367 29.402C70.0954 28.7393 70.324 28.1373 70.6227 27.596C70.9307 27.0453 71.3087 26.5973 71.7567 26.252C72.214 25.8973 72.7367 25.72 73.3247 25.72C73.6607 25.72 73.9454 25.7947 74.1787 25.944C74.412 26.0933 74.5754 26.364 74.6687 26.756H74.7387L75.1167 25.888H75.3827L73.6747 32.678L73.9267 32.79L75.7467 31.194L75.9007 31.348L74.7247 32.51C74.454 32.7807 74.2487 32.958 74.1087 33.042C73.978 33.126 73.8474 33.168 73.7167 33.168C73.586 33.168 73.4694 33.1307 73.3667 33.056C73.2734 32.9907 73.2267 32.8787 73.2267 32.72C73.2267 32.5987 73.25 32.4447 73.2967 32.258L73.8567 30.06L73.7867 30.032C73.6467 30.3587 73.4834 30.7087 73.2967 31.082C73.11 31.446 72.9 31.782 72.6667 32.09C72.4427 32.398 72.1907 32.6547 71.9107 32.86C71.6307 33.0653 71.3274 33.168 71.0007 33.168ZM71.1267 32.762C71.2947 32.762 71.4814 32.7107 71.6867 32.608C71.9014 32.5053 72.1067 32.3373 72.3027 32.104C72.5267 31.852 72.7414 31.5627 72.9467 31.236C73.152 30.9 73.3434 30.5547 73.5207 30.2C73.698 29.8453 73.852 29.5 73.9827 29.164C74.1227 28.8187 74.23 28.5107 74.3047 28.24L74.3747 27.946C74.5427 27.3113 74.538 26.84 74.3607 26.532C74.1834 26.224 73.866 26.07 73.4087 26.07C73.054 26.07 72.7227 26.1493 72.4147 26.308C72.116 26.4573 71.8454 26.672 71.6027 26.952C71.36 27.232 71.1454 27.568 70.9587 27.96C70.7814 28.352 70.632 28.786 70.5107 29.262C70.408 29.6633 70.3334 30.0367 70.2867 30.382C70.2494 30.7273 70.2307 31.0353 70.2307 31.306C70.2307 31.5113 70.24 31.7027 70.2587 31.88C70.2867 32.0573 70.3334 32.2113 70.3987 32.342C70.464 32.4727 70.5527 32.5753 70.6647 32.65C70.786 32.7247 70.94 32.762 71.1267 32.762ZM80.7821 33.168C80.6514 33.168 80.4601 33.1447 80.2081 33.098C79.9561 33.0607 79.6574 33.0093 79.3121 32.944C78.9668 32.8693 78.5794 32.7807 78.1501 32.678C77.7301 32.5753 77.2821 32.468 76.8061 32.356L76.6381 33H76.2881L76.4421 32.412C76.4794 32.2533 76.5308 32.132 76.5961 32.048C76.6708 31.964 76.7594 31.8707 76.8621 31.768L81.9021 26.812L78.4861 26.14L78.2621 26.252L77.6881 28.156L77.4781 28.114L77.9121 26.252C77.9588 26.0653 78.0334 25.93 78.1361 25.846C78.2388 25.762 78.3974 25.72 78.6121 25.72C78.8548 25.72 79.2841 25.7993 79.9001 25.958C80.5254 26.1167 81.2581 26.308 82.0981 26.532L82.2661 25.888H82.6161L82.4621 26.476C82.4248 26.6347 82.3688 26.756 82.2941 26.84C82.2288 26.924 82.1448 27.0173 82.0421 27.12L76.9881 32.076L80.9081 32.748L81.1321 32.636L81.7061 30.732L81.9161 30.774L81.4821 32.636C81.4354 32.8227 81.3608 32.958 81.2581 33.042C81.1554 33.126 80.9968 33.168 80.7821 33.168ZM84.1119 33.168C83.9812 33.168 83.8646 33.1307 83.7619 33.056C83.6686 32.9907 83.6219 32.8787 83.6219 32.72C83.6219 32.5987 83.6452 32.4447 83.6919 32.258L85.1759 26.252H83.9719L84.0279 26.014L85.7919 25.776L84.0699 32.678L84.3219 32.79L86.1419 31.194L86.2959 31.348L85.1199 32.51C84.8492 32.7807 84.6439 32.958 84.5039 33.042C84.3732 33.126 84.2426 33.168 84.1119 33.168ZM86.0859 23.732C85.9552 23.732 85.8572 23.6947 85.7919 23.62C85.7266 23.5453 85.6939 23.4613 85.6939 23.368C85.6939 23.2747 85.7126 23.1907 85.7499 23.116C85.7872 23.0413 85.8432 22.9807 85.9179 22.934C85.9926 22.878 86.0859 22.85 86.1979 22.85C86.3286 22.85 86.4266 22.8873 86.4919 22.962C86.5572 23.0367 86.5899 23.1207 86.5899 23.214C86.5899 23.3073 86.5712 23.3913 86.5339 23.466C86.4966 23.5407 86.4406 23.606 86.3659 23.662C86.2912 23.7087 86.1979 23.732 86.0859 23.732ZM87.8124 33.168C87.6817 33.168 87.5651 33.1307 87.4624 33.056C87.3691 32.9907 87.3224 32.8787 87.3224 32.72C87.3224 32.5987 87.3457 32.4447 87.3924 32.258L89.7304 22.906H88.5264L88.5824 22.668L90.3464 22.43L87.7704 32.678L88.0224 32.79L89.8424 31.194L89.9964 31.348L88.8204 32.51C88.5497 32.7807 88.3444 32.958 88.2044 33.042C88.0737 33.126 87.9431 33.168 87.8124 33.168ZM90.0363 35.016C90.4283 34.7173 90.7503 34.3953 91.0023 34.05C91.2543 33.714 91.4316 33.3873 91.5343 33.07H91.4503C91.329 33.07 91.2263 33.0327 91.1423 32.958C91.0676 32.8833 91.0303 32.79 91.0303 32.678C91.0303 32.5287 91.0816 32.3887 91.1843 32.258C91.287 32.1273 91.4316 32.062 91.6183 32.062C91.7676 32.062 91.8796 32.1087 91.9543 32.202C92.0383 32.286 92.0803 32.398 92.0803 32.538C92.0803 32.622 92.0616 32.7107 92.0243 32.804C91.9963 32.8973 91.959 33 91.9123 33.112C91.8376 33.2893 91.7443 33.4667 91.6323 33.644C91.5203 33.8307 91.3943 34.008 91.2543 34.176C91.1143 34.3533 90.965 34.512 90.8063 34.652C90.6476 34.8013 90.4936 34.9227 90.3443 35.016H90.0363ZM98.6013 32.678H99.9733L102.241 23.564H99.2313L98.7833 25.37H98.3493L98.8813 23.228H106.287L105.755 25.37H105.321L105.769 23.564H102.759L100.491 32.678H101.863L101.793 33H98.5312L98.6013 32.678ZM107.018 33.168C106.477 33.168 106.085 33.0047 105.842 32.678C105.6 32.342 105.478 31.8333 105.478 31.152C105.478 30.8253 105.506 30.4613 105.562 30.06C105.618 29.6587 105.707 29.2573 105.828 28.856C105.95 28.4547 106.099 28.0673 106.276 27.694C106.463 27.3113 106.682 26.9753 106.934 26.686C107.196 26.3967 107.49 26.1633 107.816 25.986C108.152 25.8087 108.526 25.72 108.936 25.72C109.123 25.72 109.305 25.7433 109.482 25.79C109.66 25.8273 109.818 25.8973 109.958 26C110.098 26.1027 110.21 26.238 110.294 26.406C110.388 26.5647 110.434 26.77 110.434 27.022C110.434 27.33 110.355 27.61 110.196 27.862C110.047 28.114 109.804 28.338 109.468 28.534C109.132 28.73 108.698 28.898 108.166 29.038C107.634 29.1687 106.99 29.2667 106.234 29.332C106.169 29.6213 106.113 29.9247 106.066 30.242C106.02 30.55 105.996 30.8673 105.996 31.194C105.996 31.4087 106.01 31.614 106.038 31.81C106.076 31.9967 106.136 32.1647 106.22 32.314C106.304 32.454 106.416 32.5707 106.556 32.664C106.706 32.748 106.892 32.79 107.116 32.79C107.564 32.79 108.012 32.608 108.46 32.244C108.918 31.88 109.333 31.348 109.706 30.648L109.93 30.76C109.706 31.1987 109.478 31.572 109.244 31.88C109.011 32.188 108.773 32.44 108.53 32.636C108.288 32.8227 108.04 32.958 107.788 33.042C107.536 33.126 107.28 33.168 107.018 33.168ZM106.29 29.108C106.869 29.0427 107.382 28.9587 107.83 28.856C108.288 28.7533 108.675 28.6227 108.992 28.464C109.31 28.296 109.548 28.1 109.706 27.876C109.874 27.6427 109.958 27.372 109.958 27.064C109.958 26.8027 109.884 26.5647 109.734 26.35C109.585 26.1353 109.31 26.028 108.908 26.028C108.358 26.028 107.844 26.28 107.368 26.784C106.892 27.2787 106.533 28.0533 106.29 29.108ZM113.006 33.168C112.474 33.168 112.087 33.0047 111.844 32.678C111.602 32.3513 111.48 31.852 111.48 31.18C111.48 30.844 111.508 30.4753 111.564 30.074C111.62 29.6727 111.704 29.2713 111.816 28.87C111.928 28.4687 112.073 28.0767 112.25 27.694C112.428 27.3113 112.638 26.9753 112.88 26.686C113.132 26.3967 113.417 26.1633 113.734 25.986C114.052 25.8087 114.411 25.72 114.812 25.72C115.26 25.72 115.615 25.8273 115.876 26.042C116.147 26.2567 116.282 26.5133 116.282 26.812C116.282 26.98 116.236 27.1153 116.142 27.218C116.049 27.3207 115.928 27.372 115.778 27.372C115.648 27.372 115.545 27.3347 115.47 27.26C115.396 27.176 115.358 27.0733 115.358 26.952C115.358 26.8213 115.405 26.7047 115.498 26.602C115.601 26.4993 115.746 26.4387 115.932 26.42V26.364C115.83 26.2613 115.685 26.182 115.498 26.126C115.321 26.0607 115.097 26.028 114.826 26.028C114.294 26.028 113.79 26.2893 113.314 26.812C112.848 27.3253 112.493 28.1373 112.25 29.248C112.232 29.3227 112.208 29.43 112.18 29.57C112.152 29.7007 112.124 29.8547 112.096 30.032C112.068 30.2093 112.045 30.4007 112.026 30.606C112.008 30.802 111.998 31.0027 111.998 31.208C111.998 31.4133 112.012 31.614 112.04 31.81C112.078 31.9967 112.134 32.1647 112.208 32.314C112.292 32.454 112.404 32.5707 112.544 32.664C112.694 32.748 112.88 32.79 113.104 32.79C113.534 32.79 113.954 32.6033 114.364 32.23C114.775 31.8567 115.162 31.3293 115.526 30.648L115.75 30.76C115.312 31.628 114.868 32.2487 114.42 32.622C113.972 32.986 113.501 33.168 113.006 33.168ZM121.285 33.168C121.154 33.168 121.038 33.1307 120.935 33.056C120.842 32.9907 120.795 32.8787 120.795 32.72C120.795 32.5987 120.818 32.4447 120.865 32.258L122.237 27.092C122.284 26.9053 122.307 26.7653 122.307 26.672C122.307 26.308 122.116 26.126 121.733 26.126C121.285 26.126 120.804 26.3733 120.291 26.868C120.067 27.0827 119.838 27.3393 119.605 27.638C119.381 27.9367 119.166 28.2587 118.961 28.604C118.765 28.94 118.588 29.29 118.429 29.654C118.27 30.0087 118.149 30.354 118.065 30.69L117.491 33H117.001L119.521 22.906H118.317L118.373 22.668L120.137 22.43L118.485 28.968L118.569 28.982C118.728 28.6647 118.919 28.3193 119.143 27.946C119.367 27.5633 119.619 27.2087 119.899 26.882C120.179 26.546 120.482 26.2707 120.809 26.056C121.136 25.832 121.49 25.72 121.873 25.72C122.209 25.72 122.447 25.804 122.587 25.972C122.727 26.1307 122.797 26.3407 122.797 26.602C122.797 26.7513 122.769 26.938 122.713 27.162L121.243 32.678L121.495 32.79L123.315 31.194L123.469 31.348L122.293 32.51C122.022 32.7807 121.817 32.958 121.677 33.042C121.546 33.126 121.416 33.168 121.285 33.168ZM123.491 35.016C123.883 34.7173 124.205 34.3953 124.457 34.05C124.709 33.714 124.887 33.3873 124.989 33.07H124.905C124.784 33.07 124.681 33.0327 124.597 32.958C124.523 32.8833 124.485 32.79 124.485 32.678C124.485 32.5287 124.537 32.3887 124.639 32.258C124.742 32.1273 124.887 32.062 125.073 32.062C125.223 32.062 125.335 32.1087 125.409 32.202C125.493 32.286 125.535 32.398 125.535 32.538C125.535 32.622 125.517 32.7107 125.479 32.804C125.451 32.8973 125.414 33 125.367 33.112C125.293 33.2893 125.199 33.4667 125.087 33.644C124.975 33.8307 124.849 34.008 124.709 34.176C124.569 34.3533 124.42 34.512 124.261 34.652C124.103 34.8013 123.949 34.9227 123.799 35.016H123.491ZM130.208 32.678H131.3L133.568 23.55H132.476L132.546 23.228H134.31L135.934 29.122H135.99L140.512 23.228H142.36L142.29 23.55H141.198L138.916 32.678H140.008L139.938 33H137.236L137.306 32.678H138.398L140.624 23.76H140.568L138.734 26.126L135.724 30.088L134.632 26.126L133.974 23.788H133.918L131.706 32.678H132.798L132.728 33H130.138L130.208 32.678ZM143.782 33.168C143.241 33.168 142.849 33.0047 142.606 32.678C142.363 32.342 142.242 31.8333 142.242 31.152C142.242 30.8253 142.27 30.4613 142.326 30.06C142.382 29.6587 142.471 29.2573 142.592 28.856C142.713 28.4547 142.863 28.0673 143.04 27.694C143.227 27.3113 143.446 26.9753 143.698 26.686C143.959 26.3967 144.253 26.1633 144.58 25.986C144.916 25.8087 145.289 25.72 145.7 25.72C145.887 25.72 146.069 25.7433 146.246 25.79C146.423 25.8273 146.582 25.8973 146.722 26C146.862 26.1027 146.974 26.238 147.058 26.406C147.151 26.5647 147.198 26.77 147.198 27.022C147.198 27.33 147.119 27.61 146.96 27.862C146.811 28.114 146.568 28.338 146.232 28.534C145.896 28.73 145.462 28.898 144.93 29.038C144.398 29.1687 143.754 29.2667 142.998 29.332C142.933 29.6213 142.877 29.9247 142.83 30.242C142.783 30.55 142.76 30.8673 142.76 31.194C142.76 31.4087 142.774 31.614 142.802 31.81C142.839 31.9967 142.9 32.1647 142.984 32.314C143.068 32.454 143.18 32.5707 143.32 32.664C143.469 32.748 143.656 32.79 143.88 32.79C144.328 32.79 144.776 32.608 145.224 32.244C145.681 31.88 146.097 31.348 146.47 30.648L146.694 30.76C146.47 31.1987 146.241 31.572 146.008 31.88C145.775 32.188 145.537 32.44 145.294 32.636C145.051 32.8227 144.804 32.958 144.552 33.042C144.3 33.126 144.043 33.168 143.782 33.168ZM143.054 29.108C143.633 29.0427 144.146 28.9587 144.594 28.856C145.051 28.7533 145.439 28.6227 145.756 28.464C146.073 28.296 146.311 28.1 146.47 27.876C146.638 27.6427 146.722 27.372 146.722 27.064C146.722 26.8027 146.647 26.5647 146.498 26.35C146.349 26.1353 146.073 26.028 145.672 26.028C145.121 26.028 144.608 26.28 144.132 26.784C143.656 27.2787 143.297 28.0533 143.054 29.108Z" fill="black"/>
</svg>
